<?xml version="1.0" encoding="UTF-8" standalone="no"?>
<!-- Created with Inkscape (http://www.inkscape.org/) -->

<svg
   width="600"
   height="600"
   viewBox="0 0 158.75 158.75"
   version="1.1"
   id="svg1"
   sodipodi:docname="MovieSeekerLogo.svg"
   inkscape:export-filename="MovieSeekerLogo.png"
   inkscape:export-xdpi="96"
   inkscape:export-ydpi="96"
   inkscape:version="1.4 (86a8ad7, 2024-10-11)"
   xmlns:inkscape="http://www.inkscape.org/namespaces/inkscape"
   xmlns:sodipodi="http://sodipodi.sourceforge.net/DTD/sodipodi-0.dtd"
   xmlns="http://www.w3.org/2000/svg"
   xmlns:svg="http://www.w3.org/2000/svg">
  <sodipodi:namedview
     id="namedview1"
     pagecolor="#505050"
     bordercolor="#eeeeee"
     borderopacity="1"
     inkscape:showpageshadow="0"
     inkscape:pageopacity="0"
     inkscape:pagecheckerboard="0"
     inkscape:deskcolor="#505050"
     inkscape:zoom="1.2883333"
     inkscape:cx="300"
     inkscape:cy="300"
     inkscape:window-width="1920"
     inkscape:window-height="991"
     inkscape:window-x="-9"
     inkscape:window-y="-9"
     inkscape:window-maximized="1"
     inkscape:current-layer="svg1" />
  <defs
     id="defs1" />
  <g
     id="layer1">
    <g
       id="g13"
       transform="translate(0.1110525,-19.135016)">
      <g
         id="g2"
         transform="matrix(1.6687181,0,0,1.6687181,-67.079313,-42.947975)">
        <circle
           style="fill:#e7e7e7;fill-opacity:1;stroke-width:3.13179;paint-order:markers stroke fill"
           id="path1-5"
           cx="59.493042"
           cy="84.770454"
           r="19.294933" />
        <circle
           style="fill:#cc7146;fill-opacity:1;stroke-width:2.11667;paint-order:markers stroke fill"
           id="path1"
           cx="59.493042"
           cy="84.770454"
           r="13.040769" />
      </g>
      <circle
         style="fill:#e7e7e7;fill-opacity:1;stroke-width:3.13179;paint-order:markers stroke fill"
         id="path1-5-6"
         cx="59.493042"
         cy="84.770454"
         r="19.294933"
         transform="matrix(1.6687181,0,0,1.6687181,27.052976,-42.947976)" />
      <circle
         style="fill:#cc7146;fill-opacity:1;stroke-width:2.11667;paint-order:markers stroke fill"
         id="path1-1"
         cx="59.493042"
         cy="84.770454"
         r="13.040769"
         transform="matrix(1.6687181,0,0,1.6687181,27.052976,-42.947976)" />
      <path
         style="fill:#ffffff;fill-opacity:1;stroke:none;stroke-width:59.327;stroke-dasharray:none;stroke-opacity:1;paint-order:markers stroke fill"
         d="m 50.698311,82.737572 c 0,0 0,-7.730916 6.902603,-8.00702"
         id="path13-1"
         transform="matrix(1.6687181,0,0,1.6687181,27.052976,-42.947976)" />
      <path
         style="fill:#ffffff;fill-opacity:1;stroke:none;stroke-width:59.327;stroke-dasharray:none;stroke-opacity:1;paint-order:markers stroke fill"
         d="m -5.7472126,83.054681 c 0,0 0,-7.730916 6.9026026,-8.00702"
         id="path13"
         transform="matrix(1.6687181,0,0,1.6687181,27.052976,-42.947976)" />
      <path
         id="rect3-2"
         style="fill:#e7e7e7;fill-opacity:1;stroke-width:2.66938;paint-order:markers stroke fill"
         d="m 61.602325,79.083567 c 4.08074,4.537395 6.338778,10.423949 6.339421,16.526439 -0.01723,2.019111 -0.281804,4.028505 -0.7878,5.983254 h 24.404371 c -0.505992,-1.954749 -0.77056,-3.964144 -0.787791,-5.983254 0.011,-6.107484 2.282712,-11.994656 6.377149,-16.526439 -11.466563,-10.088388 -23.315013,-10.088388 -35.54535,0 z" />
    </g>
  </g>
</svg>
